<svg aria-hidden="true" style="position: absolute; width: 0; height: 0; overflow: hidden;" version="1.1" xmlns="http://www.w3.org/2000/svg" xmlns:xlink="http://www.w3.org/1999/xlink">
<defs>
<symbol id="icon-Logo" viewBox="0 0 128 32">
<path fill="#f4e041" style="fill: var(--color9, #f4e041)" d="M35.42 27.82c0.17 1.224-0.293 2.393-1.132 3.125-0.544 0.482-1.263 0.776-2.052 0.776-0.076 0-0.151-0.003-0.226-0.008l0.010 0.001c-0.012 0-0.023 0-0.035-0.003-0.88-0.067-1.658-0.457-2.224-1.051l-0.001-0.001c-0.931-0.989-0.904-2.219-0.892-2.476 0-0.124 0.005-0.244 0.020-0.364h-10.114c0.014 0.12 0.020 0.24 0.020 0.364 0.012 0.256 0.038 1.484-0.892 2.475-0.567 0.595-1.345 0.986-2.213 1.052l-0.011 0.001c-0.012 0.003-0.023 0.003-0.035 0.003-0.061 0.004-0.133 0.007-0.205 0.007-0.573 0-1.111-0.154-1.573-0.422l0.015 0.008c-0.191-0.111-0.356-0.23-0.508-0.364l0.004 0.003-0.002-0.001c-0.837-0.734-1.3-1.902-1.13-3.125h-3.644l0.075-0.27 1.36-5.007 3.778-0.168c0.002 0 0.003 0 0.005 0 0.155 0 0.281-0.126 0.281-0.281s-0.126-0.281-0.281-0.281c-0.011 0-0.022 0.001-0.032 0.002l0.001-0-3.596 0.16 0.494-1.824 3.107 0.255c0.001 0 0.001 0 0.002 0 0.146 0 0.267-0.112 0.28-0.255l0-0.001c0.001-0.007 0.001-0.015 0.001-0.023 0-0.147-0.113-0.268-0.258-0.28l-0.001-0-2.98-0.247 0.501-1.847 0.267 0.103 2.652 1.014c0.030 0.012 0.066 0.019 0.102 0.019 0.119 0 0.221-0.073 0.262-0.177l0.001-0.002c0.012-0.030 0.019-0.065 0.019-0.102 0-0.119-0.074-0.221-0.179-0.261l-0.002-0.001-2.973-1.138 4.409-16.222 3.18 9.698c0.748-0.376 2.492-1.147 4.75-1.111h0.020c2.258-0.036 4.002 0.735 4.749 1.111l3.18-9.698 4.409 16.222-0.267 0.101-2.708 1.036c-0.106 0.042-0.179 0.143-0.179 0.262 0 0.155 0.126 0.281 0.281 0.281 0.037 0 0.072-0.007 0.104-0.020l-0.002 0.001 2.918-1.117 0.501 1.847-2.98 0.246c-0.146 0.012-0.26 0.134-0.26 0.282 0 0.008 0 0.016 0.001 0.023l-0-0.001c0.014 0.144 0.135 0.256 0.282 0.256 0 0 0 0 0 0h0.024l3.084-0.255 0.494 1.824-3.598-0.16c-0.009-0.001-0.020-0.002-0.031-0.002-0.155 0-0.281 0.126-0.281 0.281s0.126 0.281 0.281 0.281c0.002 0 0.004-0 0.006-0h-0l3.779 0.168 1.434 5.277h-3.644z"></path>
<path fill="#000" style="fill: var(--color6, #000)" opacity="0.87" d="M39.431 28.1l-0.073-0.269-0.077-0.282-1.356-4.994-0.592-0.027 1.361 5.011h-3.6l0.044 0.318c0.022 0.142 0.034 0.306 0.034 0.472 0 0.802-0.29 1.537-0.772 2.104l0.004-0.005c-0.144 0.168-0.303 0.316-0.477 0.445l-0.008 0.005c-0.077 0.059-0.163 0.117-0.254 0.168l-0.011 0.006c-0.409 0.243-0.901 0.386-1.427 0.386-0.073 0-0.146-0.003-0.217-0.008l0.010 0.001c-0.812-0.055-1.531-0.415-2.052-0.965l-0.001-0.001c-0.79-0.841-0.834-1.868-0.816-2.284 0-0.122 0.006-0.23 0.018-0.331l0.036-0.313h-10.75l0.036 0.313c0.012 0.1 0.019 0.209 0.019 0.342 0.018 0.404-0.027 1.431-0.818 2.271-0.521 0.551-1.239 0.911-2.041 0.967l-0.010 0.001c-0.062 0.005-0.134 0.008-0.207 0.008-0.525 0-1.017-0.143-1.439-0.393l0.013 0.007h-0.002c-0.102-0.058-0.19-0.116-0.272-0.179l0.006 0.004c-0.182-0.134-0.341-0.283-0.481-0.447l-0.003-0.004c-0.477-0.563-0.768-1.297-0.768-2.099 0-0.167 0.013-0.33 0.037-0.49l-0.002 0.018 0.044-0.318h-3.598l1.361-5.011-0.594 0.027-1.433 5.276-0.074 0.269h3.7c-0.093 1.649 0.864 3.175 2.366 3.706 1.307 0.462 2.84 0.078 3.813-0.957 0.936-0.996 0.988-2.205 0.969-2.666l-0.002-0.083h9.509v0.070c-0.021 0.473 0.031 1.682 0.968 2.678 0.672 0.708 1.619 1.149 2.669 1.151h0c0.388 0 0.773-0.063 1.143-0.194 1.502-0.531 2.46-2.057 2.366-3.706h3.7zM10.683 20.15l-0.288-0.024-0.504 1.86 0.298-0.012 0.296-0.014 0.485-1.787-0.287-0.023zM31.796 0l-0.296 0.9-3.080 9.389c-1.077-0.502-2.676-1.031-4.58-0.997h-0.015c-1.91-0.031-3.508 0.495-4.586 0.997l-0.427-1.3c-0.884-2.695-1.767-5.392-2.653-8.089l-0.295-0.9-4.649 17.106 0.267 0.102 0.267 0.101 4.167-15.338c0.787 2.397 1.573 4.795 2.357 7.191l0.631 1.92 0.293-0.149c1.015-0.511 2.645-1.117 4.622-1.081h0.025c1.982-0.034 3.602 0.57 4.616 1.081l0.296 0.148 0.629-1.92c0.785-2.396 1.571-4.793 2.358-7.191l4.168 15.339 0.267-0.101 0.264-0.102-4.647-17.106zM11.067 17.65l-0.523 1.925 0.575 0.048 0.48-1.769-0.532-0.204zM36.592 17.652l-0.265 0.1-0.267 0.103 0.48 1.768 0.288-0.024 0.286-0.023-0.523-1.924zM37.265 20.126l-0.574 0.048 0.486 1.787 0.296 0.013 0.296 0.012-0.504-1.86z"></path>
<path fill="#000" style="fill: var(--color6, #000)" opacity="0.87" d="M26.076 18.4c-0.001 0-0.002 0-0.003 0-0.33 0-0.598-0.267-0.599-0.597v-3.614c0-0.33 0.269-0.596 0.602-0.596s0.603 0.267 0.603 0.596v3.615c0 0.329-0.269 0.596-0.603 0.596zM21.939 17.768c-0.020 0.002-0.042 0.004-0.065 0.004-0.309 0-0.563-0.232-0.598-0.531l-0-0.003-0.293-2.727c-0.036-0.327 0.204-0.622 0.536-0.658 0.020-0.002 0.043-0.004 0.066-0.004 0.309 0 0.563 0.233 0.597 0.532l0 0.003 0.293 2.727c0.036 0.329-0.204 0.622-0.536 0.657zM14.615 18.709c-0.043 0.106-0.144 0.179-0.263 0.179-0.037 0-0.071-0.007-0.103-0.020l0.002 0.001-7.038-2.694c-0.107-0.041-0.182-0.142-0.182-0.262 0-0.037 0.007-0.072 0.020-0.104l-0.001 0.002c0.043-0.106 0.145-0.179 0.264-0.179 0.037 0 0.072 0.007 0.105 0.020l-0.002-0.001 7.037 2.694c0.106 0.041 0.18 0.143 0.18 0.262 0 0.037-0.007 0.072-0.020 0.104l0.001-0.002zM14.068 20.148c-0.013 0.145-0.134 0.258-0.281 0.258-0 0-0.001 0-0.001 0h-0.024l-7.519-0.623c-0.144-0.013-0.257-0.133-0.257-0.28 0-0.155 0.126-0.281 0.281-0.281 0.008 0 0.017 0 0.025 0.001l-0.001-0 7.519 0.621c0.145 0.012 0.259 0.133 0.259 0.28 0 0.008-0 0.016-0.001 0.024l0-0.001zM14.078 22.083c0 0.003 0 0.007 0 0.011 0 0.151-0.12 0.275-0.27 0.281l-0.001 0-7.55 0.336c-0.002 0-0.004 0-0.006 0-0.155 0-0.281-0.126-0.281-0.281 0-0.153 0.122-0.277 0.274-0.281h0l7.537-0.334c0.16-0.008 0.289 0.113 0.296 0.268zM40.444 16.175l-7.037 2.694c-0.030 0.012-0.066 0.019-0.102 0.019-0.119 0-0.221-0.073-0.264-0.177l-0.001-0.002c-0.012-0.030-0.019-0.064-0.019-0.101 0-0.12 0.075-0.222 0.18-0.262l0.002-0.001 7.037-2.694c0.031-0.012 0.066-0.019 0.103-0.019 0.119 0 0.221 0.073 0.264 0.177l0.001 0.002c0.012 0.030 0.019 0.065 0.019 0.101 0 0.12-0.075 0.222-0.18 0.263l-0.002 0.001zM41.67 19.48c0.001 0.006 0.001 0.014 0.001 0.021 0 0.148-0.114 0.27-0.259 0.281l-0.001 0-7.543 0.623c-0.147-0-0.267-0.112-0.282-0.255l-0-0.001c-0.001-0.007-0.001-0.014-0.001-0.022 0-0.148 0.114-0.269 0.259-0.281l0.001-0 7.519-0.621c0.008-0.001 0.018-0.001 0.028-0.001 0.146 0 0.267 0.112 0.279 0.255l0 0.001zM41.68 22.442c-0.008 0.149-0.131 0.268-0.282 0.268-0 0-0.001 0-0.001 0h-0.012l-7.538-0.335c-0.151-0.006-0.27-0.13-0.27-0.282 0-0.004 0-0.007 0-0.011v0c0.007-0.15 0.13-0.269 0.281-0.269 0.005 0 0.011 0 0.016 0l7.537 0.334c0.151 0.006 0.27 0.129 0.27 0.281 0 0.004-0 0.009-0 0.013l0-0.001z"></path>
<path fill="#fff" style="fill: var(--color7, #fff)" d="M31.902 29.020c0.108 0.309 0.202 0.684 0.231 1.116 0.036 0.507-0.028 0.948-0.116 1.297l-0.116-2.412z"></path>
<path fill="#000" style="fill: var(--color6, #000)" opacity="0.87" d="M32.019 31.714c-0.001 0-0.002 0-0.004 0-0.155 0-0.28-0.125-0.28-0.28 0-0.024 0.003-0.047 0.009-0.070l-0 0.002c0.074-0.284 0.117-0.611 0.117-0.947 0-0.468-0.083-0.917-0.234-1.332l0.009 0.027c-0.010-0.027-0.015-0.059-0.015-0.091 0-0.123 0.079-0.227 0.189-0.264l0.002-0.001c0.028-0.010 0.060-0.016 0.093-0.016 0.123 0 0.227 0.078 0.266 0.188l0.001 0.002c0.163 0.443 0.257 0.955 0.257 1.489 0 0.384-0.049 0.757-0.14 1.112l0.007-0.031c-0.033 0.123-0.144 0.212-0.275 0.212-0 0-0 0-0.001 0h0z"></path>
<path fill="#fff" style="fill: var(--color7, #fff)" d="M33.749 28.91c0.173 0.276 0.324 0.613 0.372 0.999 0.057 0.453-0.045 0.847-0.187 1.162l-0.185-2.161z"></path>
<path fill="#000" style="fill: var(--color6, #000)" opacity="0.87" d="M33.934 31.35c-0.001 0-0.003 0-0.004 0-0.155 0-0.28-0.125-0.28-0.28 0-0.042 0.009-0.081 0.025-0.116l-0.001 0.002c0.15-0.337 0.204-0.677 0.163-1.014-0.048-0.334-0.164-0.633-0.334-0.894l0.005 0.008c-0.027-0.042-0.042-0.093-0.042-0.148 0-0.1 0.053-0.188 0.133-0.237l0.001-0.001c0.042-0.026 0.094-0.042 0.149-0.042 0.101 0 0.189 0.052 0.24 0.132l0.001 0.001c0.227 0.362 0.364 0.738 0.411 1.113 0.011 0.086 0.017 0.185 0.017 0.286 0 0.371-0.082 0.723-0.23 1.039l0.006-0.015c-0.045 0.099-0.143 0.167-0.257 0.167-0 0-0.001 0-0.001 0h0z"></path>
<path fill="#fff" style="fill: var(--color7, #fff)" d="M15.757 29.020c-0.108 0.309-0.202 0.684-0.231 1.116-0.036 0.507 0.028 0.948 0.116 1.297l0.116-2.412z"></path>
<path fill="#000" style="fill: var(--color6, #000)" opacity="0.87" d="M15.64 31.714c-0 0-0.001 0-0.001 0-0.132 0-0.242-0.090-0.274-0.211l-0-0.002c-0.085-0.325-0.134-0.697-0.134-1.082 0-0.534 0.094-1.046 0.267-1.52l-0.010 0.031c0.040-0.111 0.145-0.189 0.268-0.189 0.033 0 0.065 0.006 0.094 0.016l-0.002-0.001c0.112 0.039 0.19 0.143 0.19 0.265 0 0.033-0.006 0.064-0.016 0.093l0.001-0.002c-0.143 0.389-0.226 0.838-0.226 1.306 0 0.336 0.043 0.662 0.123 0.972l-0.006-0.027c0.005 0.020 0.008 0.044 0.008 0.068 0 0.132-0.090 0.242-0.213 0.273l-0.002 0c-0.019 0.006-0.041 0.009-0.064 0.009-0.001 0-0.003 0-0.004-0h0z"></path>
<path fill="#fff" style="fill: var(--color7, #fff)" d="M13.911 28.91c-0.174 0.276-0.325 0.613-0.372 0.999-0.057 0.453 0.046 0.847 0.187 1.162l0.185-2.161z"></path>
<path fill="#000" style="fill: var(--color6, #000)" opacity="0.87" d="M13.724 31.35c-0 0-0 0-0 0-0.115 0-0.213-0.068-0.258-0.165l-0.001-0.002c-0.141-0.299-0.224-0.65-0.224-1.019 0-0.102 0.006-0.203 0.019-0.302l-0.001 0.012c0.058-0.419 0.204-0.796 0.417-1.123l-0.006 0.011c0.051-0.080 0.14-0.133 0.241-0.133 0.055 0 0.106 0.016 0.15 0.043l-0.001-0.001c0.133 0.081 0.174 0.253 0.092 0.386-0.182 0.292-0.293 0.59-0.329 0.885-0.042 0.337 0.012 0.677 0.162 1.014 0.016 0.034 0.025 0.073 0.025 0.115 0 0.155-0.125 0.28-0.28 0.28-0.001 0-0.002 0-0.003-0h0zM10.284 28.060h-9.982c-0.165 0-0.301-0.107-0.301-0.238s0.136-0.24 0.301-0.24h9.982c0.165 0 0.301 0.108 0.301 0.24s-0.136 0.238-0.302 0.238zM46.627 28.11h-9.385c0 0 0 0 0 0-0.156 0-0.282-0.126-0.283-0.281v-0c0-0.154 0.127-0.28 0.283-0.28h9.385c0.156 0 0.284 0.126 0.284 0.28-0.001 0.155-0.126 0.281-0.282 0.281-0.001 0-0.001 0-0.002 0h0zM26.713 22.947c-0.204 0.524-0.676 1.093-1.275 1.179-0.554 0.077-1.064-0.216-1.431-0.672-0.036 0.098-0.079 0.196-0.136 0.296-0.092 0.163-0.587 0.969-1.411 0.969h-0.023c-0.784-0.014-1.466-0.724-1.585-1.651-0.001-0.010-0.002-0.022-0.002-0.034 0-0.144 0.108-0.262 0.247-0.279l0.001-0c0.011-0.002 0.023-0.002 0.036-0.002 0.143 0 0.261 0.106 0.28 0.244l0 0.001c0.091 0.716 0.596 1.152 1.033 1.159h0.011c0.52 0 0.879-0.611 0.918-0.68 0.196-0.348 0.191-0.705 0.156-0.939l-0.036-0.131c-0.545 0.062-1.015-0.126-1.102-0.471-0.098-0.394 0.34-0.84 0.98-0.996s1.238 0.033 1.336 0.427c0.082 0.324-0.2 0.683-0.659 0.888 0.013 0.052 0.027 0.113 0.038 0.18 0.229 0.756 0.816 1.197 1.269 1.135 0.351-0.051 0.681-0.453 0.824-0.823 0.061-0.156 0.096-0.336 0.096-0.524 0-0.098-0.010-0.195-0.028-0.288l0.002 0.009c-0.003-0.015-0.004-0.032-0.004-0.049 0-0.138 0.1-0.254 0.231-0.278l0.002-0c0.015-0.003 0.033-0.005 0.051-0.005 0.138 0 0.253 0.098 0.279 0.229l0 0.002c0.048 0.264 0.071 0.668-0.098 1.104zM53.916 22.877c-0.484 0-0.727-0.133-0.727-0.4v-10.988h-3.486c-0.121 0-0.212-0.043-0.272-0.127s-0.092-0.224-0.092-0.418v-0.292c0-0.195 0.030-0.333 0.091-0.418s0.151-0.128 0.273-0.128h8.516c0.133 0 0.224 0.043 0.273 0.127 0.060 0.085 0.091 0.224 0.091 0.418v0.292c0 0.195-0.030 0.334-0.091 0.419-0.049 0.084-0.14 0.127-0.273 0.127h-3.431v10.988c0 0.267-0.243 0.4-0.727 0.4h-0.145zM61.268 22.842c-0.194 0-0.333-0.044-0.418-0.128s-0.127-0.225-0.127-0.418v-11.644c0-0.194 0.043-0.332 0.127-0.418s0.224-0.127 0.418-0.127h6.338c0.133 0 0.224 0.043 0.272 0.127 0.060 0.085 0.091 0.224 0.091 0.418v0.292c0 0.195-0.030 0.334-0.091 0.419-0.048 0.084-0.139 0.127-0.272 0.127h-5.285v4.148h4.74c0.133 0 0.224 0.043 0.272 0.128 0.060 0.084 0.092 0.224 0.092 0.418v0.292c0 0.194-0.031 0.333-0.092 0.418-0.048 0.085-0.139 0.128-0.272 0.128h-4.74v4.439h5.302c0.133 0 0.224 0.042 0.273 0.127 0.060 0.084 0.091 0.224 0.091 0.418v0.292c0 0.194-0.030 0.333-0.091 0.418-0.049 0.085-0.14 0.128-0.273 0.128h-6.356zM73.287 22.95c-0.019 0-0.041 0-0.064 0-0.694 0-1.366-0.093-2.004-0.268l0.053 0.012c-0.618-0.169-1.084-0.376-1.398-0.618-0.231-0.171-0.346-0.322-0.346-0.455 0-0.146 0.079-0.346 0.236-0.6 0.169-0.255 0.302-0.382 0.4-0.382 0.048 0 0.175 0.060 0.38 0.181 0.375 0.206 0.775 0.382 1.199 0.528 0.436 0.146 0.95 0.218 1.543 0.218 0.702 0 1.271-0.194 1.707-0.582 0.448-0.4 0.672-0.921 0.672-1.564 0-0.448-0.121-0.818-0.363-1.109-0.238-0.297-0.535-0.537-0.875-0.703l-0.015-0.007c-0.34-0.182-0.836-0.4-1.489-0.655-0.702-0.279-1.26-0.533-1.671-0.764s-0.763-0.569-1.053-1.019c-0.291-0.46-0.436-1.060-0.436-1.801 0-0.654 0.164-1.236 0.491-1.746 0.338-0.51 0.811-0.904 1.416-1.182 0.618-0.292 1.325-0.437 2.124-0.437 0.412 0 0.871 0.060 1.38 0.182 0.508 0.109 0.901 0.26 1.18 0.454 0.242 0.146 0.363 0.304 0.363 0.474 0 0.133-0.078 0.327-0.236 0.581-0.146 0.255-0.26 0.382-0.345 0.382-0.061 0-0.151-0.030-0.273-0.091-0.092-0.050-0.164-0.092-0.233-0.136l0.015 0.009c-0.547-0.297-1.197-0.472-1.888-0.474h-0c-0.702 0-1.271 0.182-1.707 0.546-0.424 0.364-0.636 0.868-0.636 1.511 0 0.412 0.103 0.745 0.308 1 0.218 0.254 0.46 0.449 0.726 0.582 0.279 0.121 0.757 0.315 1.435 0.582 0.726 0.278 1.32 0.551 1.78 0.818 0.46 0.255 0.848 0.631 1.163 1.129 0.327 0.484 0.491 1.109 0.491 1.874 0 1.091-0.364 1.952-1.090 2.583s-1.707 0.946-2.942 0.946zM82.876 22.877c-0.484 0-0.726-0.133-0.726-0.4v-10.988h-3.487c-0.121 0-0.212-0.043-0.272-0.127s-0.091-0.224-0.091-0.418v-0.292c0-0.195 0.030-0.333 0.091-0.418s0.151-0.128 0.272-0.128h8.517c0.133 0 0.224 0.043 0.272 0.127 0.060 0.085 0.091 0.224 0.091 0.418v0.292c0 0.195-0.030 0.334-0.091 0.419-0.048 0.084-0.14 0.127-0.272 0.127h-3.432v10.988c0 0.267-0.243 0.4-0.727 0.4h-0.145zM92.842 22.877c-0.484 0-0.726-0.133-0.726-0.4v-10.988h-3.487c-0.121 0-0.212-0.043-0.272-0.127s-0.091-0.224-0.091-0.418v-0.292c0-0.195 0.030-0.333 0.091-0.418s0.151-0.128 0.272-0.128h8.517c0.133 0 0.224 0.043 0.272 0.127 0.060 0.085 0.091 0.224 0.091 0.418v0.292c0 0.195-0.030 0.334-0.091 0.419-0.048 0.084-0.139 0.127-0.272 0.127h-3.432v10.988c0 0.267-0.243 0.4-0.727 0.4h-0.145zM98.14 22.877c-0.52 0-0.78-0.103-0.78-0.309 0-0.060 0.018-0.146 0.054-0.255l4.304-11.952c0.072-0.194 0.315-0.291 0.726-0.291h0.526c0.436 0 0.678 0.098 0.726 0.291l4.304 11.971c0.033 0.069 0.053 0.15 0.055 0.236l0 0.001c0 0.206-0.26 0.309-0.781 0.309h-0.145c-0.424 0-0.666-0.098-0.727-0.291l-1.071-2.984h-5.339l-1.036 2.984c-0.060 0.194-0.302 0.291-0.726 0.291h-0.091zM104.842 18.22l-1.908-5.42c-0.060-0.194-0.132-0.546-0.218-1.055h-0.036c-0.096 0.485-0.188 0.836-0.272 1.055l-1.907 5.421h4.34zM112.709 22.95c-0.019 0-0.042 0-0.065 0-0.694 0-1.365-0.093-2.004-0.268l0.053 0.012c-0.618-0.169-1.084-0.376-1.398-0.618-0.23-0.171-0.346-0.322-0.346-0.455 0-0.146 0.079-0.346 0.236-0.6 0.17-0.255 0.302-0.382 0.4-0.382 0.048 0 0.175 0.060 0.381 0.181 0.375 0.206 0.774 0.382 1.198 0.528 0.436 0.146 0.95 0.218 1.543 0.218 0.702 0 1.271-0.194 1.708-0.582 0.448-0.4 0.672-0.921 0.672-1.564 0-0.448-0.122-0.818-0.364-1.109-0.238-0.297-0.535-0.537-0.875-0.703l-0.015-0.007c-0.339-0.182-0.836-0.4-1.489-0.655-0.702-0.279-1.26-0.533-1.671-0.764s-0.763-0.569-1.053-1.019c-0.29-0.46-0.436-1.060-0.436-1.801 0-0.654 0.164-1.236 0.491-1.746 0.339-0.51 0.811-0.904 1.416-1.182 0.618-0.292 1.325-0.437 2.124-0.437 0.412 0 0.872 0.060 1.38 0.182 0.508 0.109 0.902 0.26 1.18 0.454 0.242 0.146 0.364 0.304 0.364 0.474 0 0.133-0.079 0.327-0.236 0.581-0.145 0.255-0.26 0.382-0.345 0.382-0.060 0-0.152-0.030-0.273-0.091-0.093-0.050-0.165-0.093-0.234-0.137l0.016 0.010c-0.547-0.297-1.197-0.472-1.888-0.474h-0.001c-0.702 0-1.272 0.182-1.708 0.546-0.424 0.364-0.636 0.868-0.636 1.511 0 0.412 0.103 0.745 0.308 1 0.219 0.254 0.46 0.449 0.727 0.582 0.278 0.121 0.756 0.315 1.435 0.582 0.726 0.278 1.319 0.551 1.78 0.818 0.46 0.255 0.847 0.631 1.162 1.129 0.327 0.484 0.491 1.109 0.491 1.874 0 1.091-0.364 1.952-1.090 2.583s-1.707 0.946-2.942 0.946zM119.846 22.877c-0.484 0-0.726-0.133-0.726-0.4v-12.007c0-0.267 0.242-0.4 0.726-0.4h0.146c0.484 0 0.726 0.133 0.726 0.4v5.567h0.072l4.468-5.713c0.133-0.169 0.46-0.254 0.98-0.254h0.182c0.205 0 0.363 0.024 0.472 0.073 0.108 0.036 0.164 0.091 0.164 0.164 0 0.109-0.061 0.231-0.182 0.364l-4.54 5.676 5.502 5.985c0.109 0.121 0.164 0.219 0.164 0.292 0 0.097-0.060 0.164-0.181 0.2s-0.327 0.054-0.618 0.054h-0.218c-0.267 0-0.478-0.012-0.636-0.036-0.146-0.023-0.272-0.096-0.363-0.2l-0.001-0.001-5.194-5.858h-0.072v5.694c0 0.267-0.243 0.4-0.726 0.4h-0.146z"></path>
</symbol>
<symbol id="icon-preloader" viewBox="0 0 32 32">
<path fill="#00bdd3" style="fill: var(--color1, #00bdd3)" d="M16 1.6c0-0.884 0.718-1.608 1.597-1.52 2.6 0.261 5.105 1.156 7.292 2.617 2.631 1.758 4.682 4.257 5.893 7.181s1.528 6.141 0.91 9.244c-0.617 3.104-2.141 5.955-4.379 8.192s-5.089 3.761-8.192 4.379c-3.104 0.617-6.321 0.301-9.244-0.91s-5.422-3.262-7.181-5.893c-1.461-2.186-2.356-4.692-2.617-7.292-0.088-0.879 0.636-1.597 1.52-1.597s1.59 0.719 1.7 1.596c0.247 1.966 0.948 3.856 2.057 5.515 1.406 2.105 3.406 3.746 5.744 4.714s4.913 1.222 7.395 0.728c2.483-0.494 4.764-1.713 6.554-3.503s3.009-4.071 3.503-6.554c0.494-2.483 0.24-5.057-0.728-7.395s-2.609-4.338-4.714-5.744c-1.66-1.109-3.549-1.81-5.515-2.057-0.877-0.11-1.596-0.816-1.596-1.7z"></path>
</symbol>
</defs>
</svg>
