<svg xmlns="http://www.w3.org/2000/svg" width="70" height="70" fill="none"><circle cx="35" cy="35" r="35" fill="#fff"/><path fill="#D0CFCF" d="M34.952 70C15.63 70.002-.075 54.242 0 34.93.078 15.579 15.724-.034 35.005 0 54.359.036 69.944 15.593 70 34.937 70.057 54.304 54.368 70 34.952 70ZM11.244 57.555c12.905 13.766 34.916 13.51 47.47.01-.264-.307-.516-.634-.806-.926-1.307-1.314-2.855-2.302-4.527-3.047-2.185-.974-4.436-1.8-6.643-2.725-1.046-.44-2.091-.902-3.074-1.464-1.122-.639-1.849-1.6-1.881-2.971a146.288 146.288 0 0 0-.112-3.323 2.773 2.773 0 0 1 .61-1.915c1.703-2.205 2.59-4.709 2.607-7.503.002-.439.185-.705.516-.966.738-.585 1.393-1.274 1.591-2.227a28.13 28.13 0 0 0 .461-3.105c.08-.847-.012-1.675-1.09-1.764.15-1.28.35-2.462.42-3.65.141-2.426-.122-4.797-1.344-6.964-1.053-1.866-2.64-2.89-4.811-2.973-.288-.011-.583-.1-.858-.195-2.75-.945-5.591-1.234-8.422-.67-5.511 1.099-8.809 5.836-8.146 11.475.115.974.3 1.939.464 2.983-.756.04-1.2.475-1.186 1.195.04 2.14.079 4.304 1.972 5.814.474.378.594.853.643 1.411.068.801.16 1.604.288 2.398.299 1.864 1.386 3.353 2.361 4.899.242.383.438.866.456 1.31.048 1.226 0 2.456-.027 3.683-.027 1.231-.592 2.182-1.598 2.864-.47.318-.95.64-1.47.86a93.461 93.461 0 0 1-3.756 1.487c-2.61.983-5.194 2.016-7.514 3.603-.972.665-1.87 1.404-2.594 2.396Z"/></svg>