<svg xmlns="http://www.w3.org/2000/svg" width="328" height="290" fill="none"><path fill="#EBEBEB" d="M321.927 267.839h-25.843v.194h25.843v-.194ZM229.324 269.945h-6.781v.194h6.781v-.194ZM295.304 260.621H280.33v.194h14.974v-.194ZM45.513 261.926h-33.7v.194h33.7v-.194ZM57.405 261.926h-4.94v.194h4.94v-.194ZM146.559 265.205H73.463v.194h73.096v-.194Z"/><path fill="#E5F7FF" d="M156.106 25.234c-11.345 12.549-16.963 29.643-16.003 46.505.959 16.862 7.202 33.009 14.801 48.106 6.656 13.225 14.607 28.222 9.161 41.983-3.043 7.693-9.98 13.389-17.65 16.559-7.67 3.17-16.081 4.087-24.376 4.499-14.138.707-28.488.062-42.244 3.365-13.756 3.302-27.302 11.461-32.623 24.523-6.266 15.393.85 33.809 13.397 44.741 12.555 10.933 29.393 15.627 45.911 17.95a202.322 202.322 0 0 0 69.718-2.393c18.36-3.878 36.424-10.475 51.405-21.734 14.973-11.259 26.662-27.546 29.869-45.962 3.199-18.415-3.012-38.781-17.666-50.452-6.094-4.857-13.444-8.175-18.789-13.839-5.345-5.665-8.06-15.098-3.097-21.097 3.277-3.963 8.801-5.175 13.92-5.789 25.179-2.991 53.074 2.176 74.134-11.896 12.055-8.058 19.858-21.796 21.575-36.156 1.716-14.36-1.397-29.9-10.48-41.182-24.758-30.716-130.641-31.268-160.963 2.269Z"/><path fill="#E5F7FF" d="M165.949 290c83.554 0 151.288-3.938 151.288-8.796 0-4.858-67.734-8.796-151.288-8.796-83.554 0-151.288 3.938-151.288 8.796 0 4.858 67.734 8.796 151.288 8.796Z"/><path fill="#00BDD3" d="m153.521 157.896 1.95-11.213 3.831 1.112-5.781 10.101ZM154.808 161.478l10.971-3.155-1.522-3.675-9.449 6.83ZM156.759 157.267l6.25-11.772 4.205 2.913-10.455 8.859ZM53.504 174.921h-4.94a.386.386 0 0 1-.39-.389c0-.218.172-.388.39-.388h4.94c.219 0 .39.17.39.388a.386.386 0 0 1-.39.389ZM45.28 174.921H20.522a.386.386 0 0 1-.39-.389c0-.218.171-.388.39-.388h24.75c.219 0 .39.17.39.388a.384.384 0 0 1-.382.389ZM133.061 219.881a.393.393 0 0 1-.266-.101.391.391 0 0 1-.023-.552l2.309-2.502a.402.402 0 0 1 .554-.023.39.39 0 0 1 .024.551l-2.31 2.503a.38.38 0 0 1-.288.124ZM111.907 239.796a.402.402 0 0 1-.351-.21.386.386 0 0 1 .172-.521c7.233-3.644 18.688-17.273 18.805-17.413a.387.387 0 0 1 .593.497c-.476.568-11.681 13.886-19.055 17.608a.342.342 0 0 1-.164.039Z"/><path fill="#F6B69E" d="m168.055 235.538 5.571-4.592-14.029-13.257-5.985 5.09 14.443 12.759Z"/><path fill="#00BDD3" d="M178.136 229.182c-.374-.233-1.139-.124-1.927.093-.375.109-.765.233-1.108.358-.273.101-.523.202-.734.287-.312.132-.538.233-.616.272-.07.016-.117.085-.125.163-.008.023.008.055.024.078a.16.16 0 0 0 .109.078c.788.209 1.599.341 2.419.404.398.054.811.023 1.193-.086.024-.008.039-.008.055-.015.219-.07.437-.164.632-.28a.99.99 0 0 0 .367-.863.587.587 0 0 0-.289-.489Zm-.078.505a.593.593 0 0 1-.25.583c-.148.124-.359.202-.632.256-.265.055-.585.07-.952.047a10.792 10.792 0 0 1-1.482-.187l-.367-.07a9.822 9.822 0 0 1 2.076-.722 9.549 9.549 0 0 1 1.155-.187.67.67 0 0 1 .327.078c.086.046.133.124.125.202Z"/><path fill="#00BDD3" d="M175.585 226.26a1.342 1.342 0 0 0-.889.567 1.32 1.32 0 0 0-.156.295c-.469 1.003-.227 2.518-.172 2.798a.1.1 0 0 1 .008.039.157.157 0 0 0 .117.132c.031.015.07.023.109.007.023 0 .047-.015.07-.038.133-.109.273-.257.429-.436a6.29 6.29 0 0 0 .664-.932c.483-.785.827-1.671.616-2.129-.086-.179-.289-.389-.796-.303Zm.468.458c.133.303-.125.995-.522 1.679-.258.435-.554.855-.851 1.165-.062-.489-.125-1.422.117-2.113.047-.156.117-.303.203-.42.133-.186.32-.334.538-.396l.11-.016c.327-.054.39.063.405.101Z"/><path fill="#0E1F3D" d="m172.901 230.62-6.991 3.512a.61.61 0 0 0-.328.73l2.06 6.512c.226.637.928.971 1.576.746.039-.016.086-.031.125-.047 11.977-4.188 15.645-7.156 16.901-7.832 3.566-1.935 1.56-4.453.234-4.142-5.969 1.422-7.975 1.057-10.557.388-1.381-.209-2.599-.077-3.02.133Z"/><path fill="#000" d="m159.597 217.697 7.108 6.27-5.992 5.09-7.101-6.271 5.985-5.089Z" opacity=".2"/><path fill="#00BDD3" d="m157.388 229.011 8.935-8.205-1.967-3.443-10.331 8.835 3.363 2.813Z"/><path fill="#fff" d="m157.388 229.011 8.935-8.205-1.967-3.443-10.331 8.835 3.363 2.813Z" opacity=".5"/><path fill="#00BDD3" d="m162.952 218.567-1.193 1.026-1.787 1.53-1.069.902-3.114 2.665-.6.505s-12.727-7.141-19.812-13.241c-4.853-4.18-5.29-5.734-5.797-5.345-6.843 5.182-27.099 23.101-38.577 32.425-.374.039-.741.078-1.124.101-6.133.451-10.955-.225-14.7-1.647-.039-4.958 4.221-16.535 4.572-17.654 0 0 16.94-16.769 44.383-30.942.273-.14.554-.249.827-.365.359-.155.71-.303 1.076-.435 1.436-.544 2.841-.878 4.206-.948 1.225-.062 2.419.155 3.566.559a13.73 13.73 0 0 1 1.904.832c.546.272 1.077.59 1.592.917.85.536 1.669 1.134 2.442 1.725 1.748 1.344 15.005 18.353 22.136 26.201v.008c.375.443.734.831 1.069 1.181Z"/><path fill="#000" d="m162.952 218.567-1.193 1.026-1.787 1.53-1.069.902-3.114 2.665-.6.505s-12.727-7.141-19.812-13.241c-4.853-4.18-5.29-5.734-5.797-5.345-6.843 5.182-27.099 23.101-38.577 32.425-.374.039-.741.078-1.124.101-6.133.451-10.955-.225-14.7-1.647-.039-4.958 4.221-16.535 4.572-17.654 0 0 16.94-16.769 44.383-30.942.273-.14.554-.249.827-.365.359-.155.71-.303 1.076-.435 1.436-.544 2.841-.878 4.206-.948 1.225-.062 2.419.155 3.566.559a13.73 13.73 0 0 1 1.904.832c.546.272 1.077.59 1.592.917.85.536 1.669 1.134 2.442 1.725 1.748 1.344 15.005 18.353 22.136 26.201v.008c.375.443.734.831 1.069 1.181Z" opacity=".1"/><path fill="#F6B69E" d="M72.558 146.987c1.07 4.841 2.193 11.905-1.14 15.222a107.646 107.646 0 0 0 14.81 20.126c7.312-12.658.383-20.483.383-20.483-5.478-1.166-5.392-3.365-4.534-7.156l-9.519-7.709Z"/><path fill="#00BDD3" d="M68.032 162.823a6.141 6.141 0 0 1 2.372-3.233c1.093-.839 12.454-.963 15.41 0a7.436 7.436 0 0 1 4.128 3.241l-21.91-.008Z"/><path fill="#F6B69E" d="m120.444 182.094 2.941-1.337.149 4.771s-1.374 1.22-2.88 1.686c-1.443.443-2.816-.878-2.458-2.338a4.164 4.164 0 0 1 2.248-2.782Z"/><path fill="#F6B69E" d="m127.137 182.109-.156 1.749a1.233 1.233 0 0 1-.967 1.111l-2.513.559-.148-4.771 2.552.039a1.213 1.213 0 0 1 1.232 1.205v.108ZM83.138 195.668c4.417 2.168 9.832 3.412 15.146 2.518 6.257-1.049 17.158-7.304 21.902-10.894l-1.6-2.37c-2.364.505-21.683 10.28-34.168 1.437-2.325-1.647-11.454-8.43-14.685-8.29-5.235.233-4.783 5.695-2.536 7.972 2.645 2.657 12.329 7.856 15.941 9.627Z"/><g fill="#000" opacity=".2"><path d="M126.982 183.857a1.25 1.25 0 0 1-.967 1.112l-2.497.559v.008s-1.373 1.22-2.872 1.686a1.62 1.62 0 0 1-.46.078l-.008.007c-4.744 3.59-15.637 9.838-21.894 10.887-5.314.886-10.73-.35-15.146-2.526-3.612-1.771-13.311-6.97-15.94-9.627-2.248-2.277-2.7-7.732 2.535-7.972 3.223-.14 12.36 6.643 14.685 8.29 11.907 8.431 30.025-.069 33.732-1.313.007-.054.015-.116.031-.171a4.183 4.183 0 0 1 2.247-2.789l2.91-1.321.032-.008 2.528.031a1.213 1.213 0 0 1 1.225 1.212v.101l-.141 1.756Z" opacity=".2"/><path d="m123.376 180.757-.023.008v-.008h.023Z" opacity=".2"/></g><path fill="#00BDD3" d="M99.5 170.632c6.625 14.538-8.738 18.688-1.7 42.527l-33.396.8c.226-12.774 4.783-10.031-1.225-34.049-.507-2.036-1.358-7.872.82-13.186.85-2.067 2.356-3.823 4.33-4.888 2.466-1.329 13.327-.287 18.282.039 5.368-.746 11.907 6.939 12.89 8.757Z"/><path fill="#fff" d="M99.5 170.632c6.625 14.538-8.738 18.688-1.7 42.527l-33.396.8c.226-12.774 4.783-10.031-1.225-34.049-.507-2.036-1.358-7.872.82-13.186.85-2.067 2.356-3.823 4.33-4.888 2.466-1.329 13.327-.287 18.282.039 5.368-.746 11.907 6.939 12.89 8.757Z" opacity=".5"/><path fill="#0E1F3D" d="M93.118 141.789c-.093.637.164 1.157.562 1.212.398.054.804-.389.89-1.003.093-.614-.164-1.157-.562-1.212-.398-.046-.804.396-.89 1.003Z"/><path fill="#0E1F3D" d="m93.828 140.802 1.529-.21c0-.008-.92 1.033-1.53.21Z"/><path fill="#A02724" d="M93.22 142.628s.655 2.782 1.622 4.204c-.92.637-2.247.093-2.247.093l.624-4.297Z"/><path fill="#0E1F3D" d="M95.326 137.516a.379.379 0 0 0 .227-.28.361.361 0 0 0-.305-.412 3.611 3.611 0 0 0-3.168.995.366.366 0 0 0-.023.513c.14.148.367.155.515.023a.325.325 0 0 0 .047-.054 2.91 2.91 0 0 1 2.52-.754c.062.007.133 0 .187-.031Z"/><path fill="#F6B69E" d="M72.909 136.761c-.632 7.576-1.062 10.762 2.184 15.168 4.885 6.628 14.373 5.758 17.252-1.484 2.606-6.512 3.207-17.802-3.737-21.858-4.947-2.922-11.33-1.298-14.271 3.621a10.23 10.23 0 0 0-1.428 4.553Z"/><path fill="#0E1F3D" d="M92.517 149.987a4.148 4.148 0 0 1-1.264-1.85c-.023-.077.023-.163.11-.194a.151.151 0 0 1 .187.109c.226.629.6 1.181 1.084 1.624l-.117.311ZM67.486 126.908c-2.903 3.916-4.222 4.934-.632 15.354 1.443 4.188 5.633 9.736 7.67 10.241 3.651.917 7.202-1.639 9.948-4.211 2.404-2.254 4.705-4.686 6.165-7.631 1.459-2.945 1.997-6.473.795-9.526-1.31-3.318-5.938-6.279-9.402-7.009-4.073-.855-12.133-.474-14.544 2.782Z"/><path fill="#0E1F3D" d="M90.237 141.307s.913 1.562-.241 2.727l.023-2.082.218-.645Z"/><path fill="#0E1F3D" d="M90.223 141.307s.335 2.393-1.678 3.287l1.085-2.588.593-.699ZM76.826 151.617s-2.216 1.003-1.896 3.171l1.615-2.293.281-.878Z"/><path fill="#0E1F3D" d="M76.912 151.664s-1.685 1.741-.577 3.644l.647-2.727-.07-.917ZM93.274 138.183c.788-.808 1.591-1.632 2.169-2.603.585-.971.936-2.121.765-3.233-.227-1.445-1.32-2.634-2.59-3.364-1.273-.723-2.732-1.049-4.168-1.368-.702-.155-1.49-.303-2.106.07-.601.358-.859 1.111-.82 1.803.032.692.312 1.344.562 1.989.991 2.526 1.615 5.121 2.091 7.778.242 1.345.055 2.23 1.39 1.718.889-.35 2.028-2.091 2.707-2.79Z"/><path fill="#F6B69E" d="M82.772 141.921a6.614 6.614 0 0 0 1.725 4.763c1.584 1.717 3.597.59 4.174-1.539.53-1.911.328-5.105-1.748-6.022-2.075-.924-4.041.661-4.15 2.798ZM171.271 239.034l6.023-5.851-11.657-14.6-7.288 4.281 12.922 16.17Z"/><path fill="#00BDD3" d="M183.443 231.381c-.671-.234-2.045.512-3.082 1.173-.266.163-.5.326-.703.466l-.015.008-.102.078c-.234.163-.405.287-.468.334a.173.173 0 0 0-.094.194.202.202 0 0 0 .172.14c.718.031 1.436.008 2.154-.07.164-.016.32-.031.476-.055a2.99 2.99 0 0 0 1.451-.497c.156-.101.304-.21.429-.334a1.05 1.05 0 0 0 .195-.987.677.677 0 0 0-.413-.45Zm.046.559a.674.674 0 0 1-.124.668c-.203.249-.609.451-1.186.591a8.635 8.635 0 0 1-1.616.217c-.249.008-.515.024-.788.024.086-.07.172-.132.266-.195.062-.046.124-.085.187-.132a10.44 10.44 0 0 1 2.731-1.359.647.647 0 0 1 .367.007c.078.024.14.094.163.179Z"/><path fill="#00BDD3" d="M180.102 228.902a1.4 1.4 0 0 0-.796.792c-.491 1.197.234 3.039.359 3.326 0 .008 0 .008.008.008 0 .015 0 .023.008.023a.201.201 0 0 0 .156.117.2.2 0 0 0 .117-.016.138.138 0 0 0 .062-.046c.008-.016.016-.016.024-.024a2.94 2.94 0 0 0 .327-.528c.578-1.08 1.116-2.883.64-3.504-.14-.179-.398-.35-.905-.148Zm-.195 3.675c-.211-.614-.585-1.919-.242-2.727.094-.225.258-.42.476-.536l.109-.055c.336-.132.422-.015.453.024.335.45-.187 2.292-.796 3.294Z"/><path fill="#000" d="m165.021 217.689 5.493 7.001-7.428 4.118-5.579-6.814 7.514-4.305Z" opacity=".2"/><path fill="#0E1F3D" d="m64.1 211.426-.773 3.015c-.117.241.171.466.554.459l34.394-.808c.305-.016.546-.164.562-.35l-.858-3.163c.023-.202-.25-.373-.578-.365l-32.748.956a.602.602 0 0 0-.554.256Z"/><path fill="#00BDD3" d="m94.703 214.449-.906.093c-.179-.008-.327-.054-.327-.163l-.016-3.893c0-.109.148-.218.328-.241l.905-.101c.18.008.328.054.328.171l.015 3.893c-.008.109-.148.218-.328.241ZM82.39 214.605l-.906.093c-.179-.008-.32-.055-.327-.163l-.008-3.893c0-.109.148-.218.328-.241l.897-.101c.18.008.328.054.328.171l.015 3.893c0 .124-.148.217-.327.241Z"/><path fill="#00BDD3" d="m82.39 214.605-.906.093c-.179-.008-.32-.055-.327-.163l-.008-3.893c0-.109.148-.218.328-.241l.897-.101c.18.008.328.054.328.171l.015 3.893c0 .124-.148.217-.327.241Z"/><path fill="#00BDD3" d="m169.632 220.821-1.522.855-.007.007-2.614 1.469-2.349 1.313-.008.008-2.411 1.352v.008l-.92.52s-.211-.147-.578-.419c-.14-.101-.304-.218-.491-.358-.57-.427-1.374-1.025-2.302-1.764v-.007c-4.854-3.816-13.491-11.33-16.058-18.152-1.662 1.974-3.652 4.445-5.93 7.18-9.809 11.787-25.063 28.424-43.392 30.592-.374.054-.74.085-1.123.116-6.125.529-10.955-.085-14.716-1.461-9.512-3.465-12.165-11.795-11.51-18.874v-.023c.055-3.31.71-9.216.71-9.216l34.7.039c4.892-5.913 14.7-15.175 24.734-21.019.234-.147.476-.287.718-.411.297-.179.601-.335.898-.498 3.261-1.779 6.523-3.154 9.613-3.9a24.402 24.402 0 0 1 2.036-.404 19.244 19.244 0 0 1 2.076-.202v.007c4.751-.217 8.879 1.547 11.68 6.271l18.259 26.233.507.738ZM150.906 184.915l-38.343 1.577 1.124-24.298 38.342-1.577-1.123 24.298Z"/><path fill="#0E1F3D" d="m150.461 186.834-37.788 1.554c-1.069.046-1.904-.793-1.85-1.857l1.116-24.143c.047-1.072.96-1.973 2.029-2.02l37.789-1.554c1.069-.047 1.904.785 1.849 1.857l-1.116 24.142c-.047 1.073-.96 1.974-2.029 2.021Z"/><path fill="#00BDD3" d="m150.906 184.915-38.343 1.577 1.124-24.298 38.342-1.577-1.123 24.298Z"/><path fill="#fff" d="m150.906 184.915-38.343 1.577 1.124-24.298 38.342-1.577-1.123 24.298Z" opacity=".9"/><path fill="#fff" d="m127.295 159.824-6.336 28.206 2.52-.101 6.25-28.206-2.434.101ZM131.18 159.668l-6.336 28.207 5.002-.21 6.25-28.199-4.916.202Z" opacity=".1"/><path fill="#00BDD3" d="m138.46 187.137 12.765-.358c.219 1.477-.413 2.028-1.225 2.052l-4.081.101-2.723.062-4.237.116-26.287.762-.211-1.842 25.999-.893Z"/><path fill="#00BDD3" d="m138.46 187.136 12.765-.357c.219 1.476-.413 2.028-1.225 2.051l-4.081.101-2.723.062-4.237.117-32.537.995a.948.948 0 0 1-.882-.537.943.943 0 0 1 .819-1.344l32.101-1.088Z"/><path fill="#000" d="m138.46 187.136 12.765-.357c.219 1.476-.413 2.028-1.225 2.051l-4.081.101-2.723.062-4.237.117-32.537.995a.948.948 0 0 1-.882-.537.943.943 0 0 1 .819-1.344l32.101-1.088Z" opacity=".2"/><path fill="#000" d="m151.226 186.779.078.513a1.35 1.35 0 0 1-1.303 1.538l-4.081.101-7.577.272.125-2.067 12.758-.357ZM85.105 171.347s-1.803 3.66 3.402 13.326l2.176 3.94c.718 1.298 5.494-1.352 6.914-3.784 0 0-9.122-5.455-12.492-13.482Z" opacity=".2"/><path fill="#F6B69E" d="m129.244 182.613 3.628-1.064-.585 5.587s-5.064 3.372-6.82.147l.703-1.802a4.925 4.925 0 0 1 3.074-2.868Z"/><path fill="#F6B69E" d="m137.039 183.748-.453 2.013a1.45 1.45 0 0 1-1.303 1.134l-3.019.233.585-5.586 2.965.466a1.43 1.43 0 0 1 1.241 1.608c0 .047-.008.086-.016.132ZM99.032 192.063c2.528 3.418 6.086 6.27 10.276 7.086 4.932.964 14.42-5.983 18.867-10.482-.226-1.896-.093-2.922-1.997-3.186 0 0-4.892 3.574-14.131 5.719-2.98.692-4.97-2.347-7.576-6.768-1.296-2.207-5.493-11.244-7.077-13.256-2.536-3.233-9.77-.917-6.898 6.861 1.21 3.271 6.468 11.228 8.536 14.026Z"/><path fill="#00BDD3" d="M96.333 165.885c5.134 4.693 7.631 12.992 7.631 12.992l-11.985 7.273s-8.763-12.246-7.202-16.512c1.233-3.31 3.52-5.486 6.523-5.673 1.865-.108 3.66.661 5.033 1.92ZM68.852 215.079l-.905.023c-.18-.023-.32-.085-.312-.202l.327-3.877c.016-.117.164-.21.344-.218l.905-.023c.18.023.32.093.312.202l-.328 3.885c-.008.109-.164.225-.343.21ZM158.326 228.001l11.673-5.812-.999-4.134-13.312 6.053 2.638 3.893Z"/><path fill="#fff" d="m158.326 228.001 11.673-5.812-.999-4.134-13.312 6.053 2.638 3.893Z" opacity=".5"/><path fill="#0E1F3D" d="m176.826 232.546-8.053 2.433a.655.655 0 0 0-.484.714l.968 7.273a1.323 1.323 0 0 0 1.522 1.081c.046-.008.093-.016.14-.032 13.452-2.23 17.892-4.685 19.335-5.175 4.128-1.39 2.482-4.429 1.015-4.335-6.586.404-8.638-.35-11.252-1.531-1.397-.49-2.708-.567-3.191-.428ZM68.547 136.668c-2.419.381-4.814-1.469-5.571-3.784-.757-2.316-.133-4.903 1.108-7.009.913-1.554 6.898-5.237 9.121-1.088 4.417 8.26-4.658 11.881-4.658 11.881Z"/><path fill="#00BDD3" d="m150.562 168.946-23.604 1.002.11-2.331 23.603-1.002-.109 2.331Z"/><path fill="#fff" d="m150.562 168.946-23.604 1.002.11-2.331 23.603-1.002-.109 2.331Z" opacity=".7"/><path fill="#00BDD3" d="m150.422 172.186-23.604.995.102-2.331 23.603-.995-.101 2.331Z"/><path fill="#fff" d="m150.422 172.186-23.604.995.102-2.331 23.603-.995-.101 2.331Z" opacity=".7"/><path fill="#00BDD3" d="m150.274 175.419-23.604 1.002.11-2.331 23.603-1.002-.109 2.331Z"/><path fill="#fff" d="m150.274 175.419-23.604 1.002.11-2.331 23.603-1.002-.109 2.331Z" opacity=".7"/><path fill="#00BDD3" d="m150.126 178.659-23.604.995.11-2.331 23.603-.995-.109 2.331Z"/><path fill="#fff" d="m150.126 178.659-23.604.995.11-2.331 23.603-.995-.109 2.331Z" opacity=".7"/><path fill="#00BDD3" d="m149.985 181.892-23.604 1.003.102-2.331 23.603-1.003-.101 2.331Z"/><path fill="#fff" d="m149.985 181.892-23.604 1.003.102-2.331 23.603-1.003-.101 2.331Z" opacity=".7"/><path fill="#00BDD3" d="m117.432 171.25-1.894.082.033.776 1.895-.082-.034-.776Z"/><path fill="#fff" d="m117.432 171.25-1.894.082.033.776 1.895-.082-.034-.776Z" opacity=".5"/><path fill="#00BDD3" d="m117.347 173.495-1.895.081.034.777 1.894-.082-.033-.776Z"/><path fill="#fff" d="m117.347 173.495-1.895.081.034.777 1.894-.082-.033-.776Z" opacity=".5"/><path fill="#00BDD3" d="m117.251 175.733-1.894.082.033.776 1.895-.081-.034-.777Z"/><path fill="#fff" d="m117.251 175.733-1.894.082.033.776 1.895-.081-.034-.777Z" opacity=".5"/><path fill="#00BDD3" d="m117.166 177.979-1.894.082.033.776 1.895-.082-.034-.776Z"/><path fill="#fff" d="m117.166 177.979-1.894.082.033.776 1.895-.082-.034-.776Z" opacity=".5"/><path fill="#00BDD3" d="m117.073 180.217-1.894.081.033.777 1.894-.082-.033-.776Z"/><path fill="#fff" d="m115.208 181.084.07-.785 1.888-.078-.07.777-1.888.086Z" opacity=".5"/><path fill="#00BDD3" d="m116.982 182.456-1.894.08.033.777 1.894-.08-.033-.777Z"/><path fill="#fff" d="m116.982 182.456-1.894.08.033.777 1.894-.08-.033-.777Z" opacity=".5"/><path fill="#00BDD3" d="m119.397 169.109-3.917 1.453.039-1.025 2.17-.35-2.146-.148.039-1.025 3.815 1.095ZM143.313 165.402l-16.355.692.079-1.616 16.354-.692-.078 1.616Z"/><path fill="#fff" d="m143.313 165.402-16.355.692.079-1.616 16.354-.692-.078 1.616Z" opacity=".7"/><path fill="#00BDD3" d="m121.247 166.242-2.395.101.967-.614.265.249.289-.257.874.521ZM119.725 165.658l-.967.614.07-1.422.897.808ZM121.403 164.804l-.078 1.352-.882-.513.96-.839Z"/><path fill="#fff" d="m120.118 165.397-.054.057.006.005.054-.056-.006-.006Z"/><path fill="#fff" d="m120.072 165.42-.006.005.053.057.006-.006-.053-.056Z"/><path fill="#00BDD3" d="m121.402 164.672-1.03.932-.289.248-.265-.24-.897-.808-.07-.07 2.551-.062ZM117.44 164.921l-1.894.081.01.232 1.894-.08-.01-.233ZM117.442 165.51l-1.894.081.01.233 1.894-.081-.01-.233ZM117.44 166.111l-1.894.081.01.232 1.894-.08-.01-.233ZM227.365 48.078h-11.368a1.861 1.861 0 0 1-1.865-1.857c0-1.025.835-1.857 1.865-1.857h11.368c1.03 0 1.865.832 1.865 1.857a1.861 1.861 0 0 1-1.865 1.858Z"/><path fill="#fff" d="M227.365 48.078h-11.368a1.861 1.861 0 0 1-1.865-1.857c0-1.025.835-1.857 1.865-1.857h11.368c1.03 0 1.865.832 1.865 1.857a1.861 1.861 0 0 1-1.865 1.858Z" opacity=".7"/><path fill="#00BDD3" d="m269.072 86.238-43.587 79.879a2.135 2.135 0 0 1-2.887.847l-74.165-40.134a2.118 2.118 0 0 1-.851-2.875l56.687-103.897a2.137 2.137 0 0 1 2.888-.847l49.976 27.041 11.939 39.986Z"/><path fill="#fff" d="m269.072 86.238-43.587 79.879a2.135 2.135 0 0 1-2.887.847l-74.165-40.134a2.118 2.118 0 0 1-.851-2.875l56.687-103.897a2.137 2.137 0 0 1 2.888-.847l49.976 27.041 11.939 39.986Z" opacity=".2"/><path fill="#00BDD3" d="m244.619 104.167-55.391-29.759-1.853 3.42 55.391 29.758 1.853-3.419ZM237.049 118.138l-55.391-29.759-1.852 3.42 55.391 29.758 1.852-3.419ZM229.482 132.109l-55.391-29.758-1.852 3.419 55.391 29.758 1.852-3.419ZM257.196 46.22l-13.14 24.097a2.118 2.118 0 0 0 .851 2.875l24.118 13.054-11.829-40.025Z"/><path fill="#fff" d="m257.196 46.22-13.14 24.097a2.118 2.118 0 0 0 .851 2.875l24.118 13.054-11.829-40.025Z" opacity=".7"/><path fill="#00BDD3" d="m280.432 83.55-43.586 79.878a2.135 2.135 0 0 1-2.887.847l-74.166-40.134a2.117 2.117 0 0 1-.85-2.875L215.63 17.369a2.136 2.136 0 0 1 2.887-.847l49.977 27.041 11.938 39.986Z"/><path fill="#fff" d="m280.432 83.55-43.586 79.878a2.135 2.135 0 0 1-2.887.847l-74.166-40.134a2.117 2.117 0 0 1-.85-2.875L215.63 17.369a2.136 2.136 0 0 1 2.887-.847l49.977 27.041 11.938 39.986Z" opacity=".5"/><path fill="#00BDD3" d="m254.504 100.683-52.435-28.167a1.693 1.693 0 0 0-2.278.676l-.258.474a1.679 1.679 0 0 0 .679 2.269l52.435 28.167a1.693 1.693 0 0 0 2.278-.676l.257-.474a1.664 1.664 0 0 0-.678-2.269ZM246.935 114.654 194.5 86.487a1.693 1.693 0 0 0-2.278.675l-.258.474a1.68 1.68 0 0 0 .679 2.27l52.435 28.167a1.693 1.693 0 0 0 2.278-.676l.258-.474a1.667 1.667 0 0 0-.679-2.269ZM239.366 128.625l-52.434-28.167a1.694 1.694 0 0 0-2.279.676l-.257.474a1.679 1.679 0 0 0 .679 2.269l52.434 28.167c.82.435 1.834.132 2.279-.676l.257-.474a1.665 1.665 0 0 0-.679-2.269ZM268.565 43.532l-13.148 24.096a2.117 2.117 0 0 0 .85 2.875l24.119 13.054-11.821-40.025Z"/><path fill="#fff" d="m268.565 43.532-13.148 24.096a2.117 2.117 0 0 0 .85 2.875l24.119 13.054-11.821-40.025Z" opacity=".7"/><path fill="#F4E041" d="m265.552 6.911 3.667 16.217c-13.888 3.8-26.35 17.483-35.315 30.42-3.535 5.106-6.531 11.035-8.77 17.305 0 0 28.004-25.23 43.446-26.706l-.734 26.807s16.011-31.058 47.113-42.426c-.008-.008-26.053-18.687-49.407-21.617Z"/><path fill="#00BDD3" d="m76.616 184.083 7.077 80.555H72.285l-7.615-86.686h5.228c3.503 0 6.414 2.658 6.718 6.131Z"/><path fill="#000" d="m76.685 184.806 7.015 79.832H72.292l-7.615-86.686h4.494c3.91 0 7.17 2.976 7.514 6.854Z" opacity=".2"/><path fill="#00BDD3" d="m69.203 183.197 7.155 81.441H8.443L1.373 184.2c-.296-3.357 2.365-6.248 5.751-6.248h56.32c3.005 0 5.502 2.277 5.76 5.245Z"/><path fill="#fff" d="m69.28 184.083 7.077 80.555H8.442l-6.976-79.382c-.343-3.924 2.763-7.304 6.719-7.304h54.37c3.503 0 6.421 2.658 6.725 6.131Z" opacity=".2"/><path fill="#00BDD3" d="M188.727 264.638H8.756l-1.959-22.34H179.56c3.987 0 7.498 3.217 7.841 7.188l1.327 15.152Z"/><path fill="#fff" d="M188.727 264.638H8.756l-1.959-22.34H179.56c3.987 0 7.498 3.217 7.841 7.188l1.327 15.152Z" opacity=".2"/><path fill="#00BDD3" d="M196.981 273.193H6.641c-2.466 0-4.472-1.989-4.472-4.452 0-2.455 1.998-4.452 4.471-4.452h190.341c2.466 0 4.471 1.989 4.471 4.452 0 2.455-2.005 4.452-4.471 4.452Z"/><path fill="#000" d="M196.982 273.193H86.487c-2.466 0-4.471-1.989-4.471-4.452 0-2.455 1.997-4.452 4.47-4.452h110.496c2.465 0 4.471 1.989 4.471 4.452 0 2.455-2.006 4.452-4.471 4.452Z" opacity=".2"/><path fill="#263238" d="m9.138 273.193 2.255 7.646h4.51l2.481-7.646H9.138Z"/><path fill="#fff" d="m9.138 273.193 2.255 7.646h4.51l2.481-7.646H9.138Z" opacity=".5"/><path fill="#263238" d="m73.768 273.193 2.255 7.646h4.51l2.48-7.646h-9.245Z"/><path fill="#fff" d="m73.768 273.193 2.255 7.646h4.51l2.48-7.646h-9.245Z" opacity=".5"/><path fill="#263238" d="m123.238 273.193 2.255 7.646h4.51l2.481-7.646h-9.246Z"/><path fill="#fff" d="m123.238 273.193 2.255 7.646h4.51l2.481-7.646h-9.246Z" opacity=".5"/><path fill="#263238" d="m187.868 273.193 2.255 7.646h4.51l2.481-7.646h-9.246Z"/><path fill="#fff" d="m187.868 273.193 2.255 7.646h4.51l2.481-7.646h-9.246Z" opacity=".5"/><path fill="#EA5924" d="M261.432 150.254c0 17.215-13.964 31.171-31.19 31.171-17.225 0-31.189-13.956-31.189-31.171 0-17.216 13.964-31.172 31.189-31.172 17.226 0 31.19 13.956 31.19 31.172Z"/><path fill="#fff" d="m226.212 156.733-5.11-5.107a1.437 1.437 0 0 0-2.045 0 1.436 1.436 0 0 0 0 2.043l6.119 6.114a1.455 1.455 0 0 0 2.059 0l15.478-15.454a1.436 1.436 0 0 0 0-2.043 1.438 1.438 0 0 0-2.045 0l-14.456 14.447Z"/></svg>